<?xml version="1.0" encoding="utf-8"?>
<!-- Generator: Adobe Illustrator 25.0.0, SVG Export Plug-In . SVG Version: 6.00 Build 0)  -->
<svg version="1.1" xmlns="http://www.w3.org/2000/svg" xmlns:xlink="http://www.w3.org/1999/xlink" x="0px" y="0px"
	 viewBox="0 0 386.6 328.8" style="enable-background:new 0 0 386.6 328.8;" xml:space="preserve">
<style type="text/css">
	.st0{clip-path:url(#SVGID_2_);}
	.st1{enable-background:new    ;}
	.st2{clip-path:url(#SVGID_4_);}
	.st3{clip-path:url(#SVGID_6_);}
	.st4{fill:#020000;}
	.st5{clip-path:url(#SVGID_8_);}
	.st6{fill:#050101;}
	.st7{clip-path:url(#SVGID_10_);}
	.st8{fill:#070101;}
	.st9{clip-path:url(#SVGID_12_);}
	.st10{fill:#090101;}
	.st11{clip-path:url(#SVGID_14_);}
	.st12{fill:#0C0102;}
	.st13{clip-path:url(#SVGID_16_);}
	.st14{fill:#0E0202;}
	.st15{clip-path:url(#SVGID_18_);}
	.st16{fill:#100202;}
	.st17{clip-path:url(#SVGID_20_);}
	.st18{fill:#130203;}
	.st19{clip-path:url(#SVGID_22_);}
	.st20{fill:#150203;}
	.st21{clip-path:url(#SVGID_24_);}
	.st22{fill:#170304;}
	.st23{clip-path:url(#SVGID_26_);}
	.st24{fill:#1A0304;}
	.st25{clip-path:url(#SVGID_28_);}
	.st26{fill:#1C0304;}
	.st27{clip-path:url(#SVGID_30_);}
	.st28{fill:#1F0405;}
	.st29{clip-path:url(#SVGID_32_);}
	.st30{fill:#210405;}
	.st31{clip-path:url(#SVGID_34_);}
	.st32{fill:#230405;}
	.st33{clip-path:url(#SVGID_36_);}
	.st34{fill:#260406;}
	.st35{clip-path:url(#SVGID_38_);}
	.st36{fill:#280506;}
	.st37{clip-path:url(#SVGID_40_);}
	.st38{fill:#2A0506;}
	.st39{clip-path:url(#SVGID_42_);}
	.st40{fill:#2D0507;}
	.st41{clip-path:url(#SVGID_44_);}
	.st42{fill:#2F0607;}
	.st43{clip-path:url(#SVGID_46_);}
	.st44{fill:#310607;}
	.st45{clip-path:url(#SVGID_48_);}
	.st46{fill:#340608;}
	.st47{clip-path:url(#SVGID_50_);}
	.st48{fill:#360608;}
	.st49{clip-path:url(#SVGID_52_);}
	.st50{fill:#380709;}
	.st51{clip-path:url(#SVGID_54_);}
	.st52{fill:#3B0709;}
	.st53{clip-path:url(#SVGID_56_);}
	.st54{fill:#3D0709;}
	.st55{clip-path:url(#SVGID_58_);}
	.st56{fill:#3F070A;}
	.st57{clip-path:url(#SVGID_60_);}
	.st58{fill:#42080A;}
	.st59{clip-path:url(#SVGID_62_);}
	.st60{fill:#44080A;}
	.st61{clip-path:url(#SVGID_64_);}
	.st62{fill:#46080B;}
	.st63{clip-path:url(#SVGID_66_);}
	.st64{fill:#49090B;}
	.st65{clip-path:url(#SVGID_68_);}
	.st66{fill:#4B090B;}
	.st67{clip-path:url(#SVGID_70_);}
	.st68{fill:#4D090C;}
	.st69{clip-path:url(#SVGID_72_);}
	.st70{fill:#50090C;}
	.st71{clip-path:url(#SVGID_74_);}
	.st72{fill:#520A0C;}
	.st73{clip-path:url(#SVGID_76_);}
	.st74{fill:#540A0D;}
	.st75{clip-path:url(#SVGID_78_);}
	.st76{fill:#570A0D;}
	.st77{clip-path:url(#SVGID_80_);}
	.st78{fill:#590B0E;}
	.st79{clip-path:url(#SVGID_82_);}
	.st80{fill:#5C0B0E;}
	.st81{clip-path:url(#SVGID_84_);}
	.st82{fill:#5E0B0E;}
	.st83{clip-path:url(#SVGID_86_);}
	.st84{fill:#600B0F;}
	.st85{clip-path:url(#SVGID_88_);}
	.st86{fill:#630C0F;}
	.st87{clip-path:url(#SVGID_90_);}
	.st88{fill:#650C0F;}
	.st89{clip-path:url(#SVGID_92_);}
	.st90{fill:#670C10;}
	.st91{clip-path:url(#SVGID_94_);}
	.st92{fill:#6A0C10;}
	.st93{clip-path:url(#SVGID_96_);}
	.st94{fill:#6C0D10;}
	.st95{clip-path:url(#SVGID_98_);}
	.st96{fill:#6E0D11;}
	.st97{clip-path:url(#SVGID_100_);}
	.st98{fill:#710D11;}
	.st99{clip-path:url(#SVGID_102_);}
	.st100{fill:#730E11;}
	.st101{clip-path:url(#SVGID_104_);}
	.st102{fill:#750E12;}
	.st103{clip-path:url(#SVGID_106_);}
	.st104{fill:#780E12;}
	.st105{clip-path:url(#SVGID_108_);}
	.st106{fill:#7A0E13;}
	.st107{clip-path:url(#SVGID_110_);}
	.st108{fill:#7C0F13;}
	.st109{clip-path:url(#SVGID_112_);}
	.st110{fill:#7F0F13;}
	.st111{clip-path:url(#SVGID_114_);}
	.st112{fill:#810F14;}
	.st113{clip-path:url(#SVGID_116_);}
	.st114{fill:#831014;}
	.st115{clip-path:url(#SVGID_118_);}
	.st116{fill:#861014;}
	.st117{clip-path:url(#SVGID_120_);}
	.st118{fill:#881015;}
	.st119{clip-path:url(#SVGID_122_);}
	.st120{fill:#8A1015;}
	.st121{clip-path:url(#SVGID_124_);}
	.st122{fill:#8D1115;}
	.st123{clip-path:url(#SVGID_126_);}
	.st124{fill:#8F1116;}
	.st125{clip-path:url(#SVGID_128_);}
	.st126{fill:#911116;}
	.st127{clip-path:url(#SVGID_130_);}
	.st128{fill:#941116;}
	.st129{clip-path:url(#SVGID_132_);}
	.st130{fill:#961217;}
	.st131{clip-path:url(#SVGID_134_);}
	.st132{fill:#991217;}
	.st133{clip-path:url(#SVGID_136_);}
	.st134{fill:#9B1218;}
	.st135{clip-path:url(#SVGID_138_);}
	.st136{fill:#9D1318;}
	.st137{clip-path:url(#SVGID_140_);}
	.st138{fill:#A01318;}
	.st139{clip-path:url(#SVGID_142_);}
	.st140{fill:#A21319;}
	.st141{clip-path:url(#SVGID_144_);}
	.st142{fill:#A41319;}
	.st143{clip-path:url(#SVGID_146_);}
	.st144{fill:#A71419;}
	.st145{clip-path:url(#SVGID_148_);}
	.st146{fill:#A9141A;}
	.st147{clip-path:url(#SVGID_150_);}
	.st148{fill:#AB141A;}
	.st149{clip-path:url(#SVGID_152_);}
	.st150{fill:#AE151A;}
	.st151{clip-path:url(#SVGID_154_);}
	.st152{fill:#B0151B;}
	.st153{clip-path:url(#SVGID_156_);}
	.st154{fill:#B2151B;}
	.st155{clip-path:url(#SVGID_158_);}
	.st156{fill:#B5151B;}
	.st157{clip-path:url(#SVGID_160_);}
	.st158{fill:#B7161C;}
	.st159{clip-path:url(#SVGID_162_);}
	.st160{fill:#B9161C;}
	.st161{clip-path:url(#SVGID_164_);}
	.st162{fill:#BC161D;}
	.st163{clip-path:url(#SVGID_166_);}
	.st164{fill:#BE161D;}
	.st165{clip-path:url(#SVGID_168_);}
	.st166{fill:#C0171D;}
	.st167{clip-path:url(#SVGID_170_);}
	.st168{fill:#C3171E;}
	.st169{clip-path:url(#SVGID_172_);}
	.st170{fill:#C5171E;}
	.st171{clip-path:url(#SVGID_174_);}
	.st172{fill:#C7181E;}
	.st173{clip-path:url(#SVGID_176_);}
	.st174{fill:#CA181F;}
	.st175{clip-path:url(#SVGID_178_);}
	.st176{fill:#CC181F;}
	.st177{clip-path:url(#SVGID_180_);}
	.st178{fill:#CE181F;}
	.st179{clip-path:url(#SVGID_182_);}
	.st180{fill:#D11920;}
	.st181{clip-path:url(#SVGID_184_);}
	.st182{fill:#D31920;}
	.st183{clip-path:url(#SVGID_186_);}
	.st184{fill:#D61920;}
	.st185{clip-path:url(#SVGID_188_);}
	.st186{fill:#D81A21;}
	.st187{clip-path:url(#SVGID_190_);}
	.st188{fill:#DA1A21;}
	.st189{clip-path:url(#SVGID_192_);}
	.st190{fill:#DD1A22;}
	.st191{clip-path:url(#SVGID_194_);}
	.st192{fill:#DF1A22;}
	.st193{clip-path:url(#SVGID_196_);}
	.st194{fill:#E11B22;}
	.st195{clip-path:url(#SVGID_198_);}
	.st196{fill:#E41B23;}
	.st197{clip-path:url(#SVGID_200_);}
	.st198{fill:#E61B23;}
	.st199{clip-path:url(#SVGID_202_);}
	.st200{fill:#E81B23;}
	.st201{clip-path:url(#SVGID_204_);}
	.st202{fill:#EB1C24;}
	.st203{clip-path:url(#SVGID_206_);}
	.st204{fill:#ED1C24;}
	.st205{clip-path:url(#SVGID_208_);}
	.st206{fill:#EF4136;}
	.st207{filter:url(#Adobe_OpacityMaskFilter);}
	.st208{opacity:0.77;mask:url(#SVGID_209_);}
	.st209{clip-path:url(#SVGID_211_);}
	.st210{fill:#FF0000;}
	.st211{opacity:0.8;}
	.st212{fill:#FFFFFF;}
	.st213{fill:#231F20;}
	.st214{fill:url(#SVGID_212_);}
	.st215{fill:url(#SVGID_213_);}
	.st216{fill:url(#SVGID_214_);}
	.st217{fill:url(#SVGID_215_);}
	.st218{fill:url(#SVGID_216_);}
	.st219{fill:url(#SVGID_217_);}
	.st220{fill:url(#SVGID_218_);}
	.st221{fill:url(#SVGID_219_);}
	.st222{fill:url(#SVGID_220_);}
	.st223{fill:url(#SVGID_221_);}
	.st224{fill:url(#SVGID_222_);}
	.st225{fill:url(#SVGID_223_);}
	.st226{fill:url(#SVGID_224_);}
	.st227{fill:url(#SVGID_225_);}
	.st228{fill:url(#SVGID_226_);}
	.st229{fill:none;}
	.st230{fill:#F15A29;}
	.st231{fill:url(#SVGID_227_);}
</style>
<g id="Layer_3">
</g>
<g id="Logo">
	<g>
		<g>
			<path class="st204" d="M354.9,112.5c0,95.1-73.3,144.9-145.6,144.9S63.6,207.6,63.6,112.5V87.9h57c12.6,0,22.8-10.2,22.8-22.8
				s-10.2-22.8-22.8-22.8H42.2v130.4H0V0h120.6c35.9,0,65,29.2,65,65s-29.2,65-65,65H107c8.1,58.3,56.8,85.1,102.2,85.1
				c49.8,0,103.4-32.1,103.4-102.7H354.9z"/>
			<polygon class="st204" points="319.8,93.7 333.5,79.2 346.4,93.6 377.8,65.4 362.5,48.4 378.2,31.8 347.5,2.8 334.2,16.9 
				320.9,2.1 289.5,30.3 305.1,47.7 289.1,64.7 			"/>
			<circle class="st204" cx="214" cy="153" r="33.8"/>
			<g>
				<path class="st204" d="M43.9,243.2l-6.1-6.2l-4.9,2.2l-6.8-9.5l31.6-13l8.5,8.8l-16.9,30.6l-8.8-7.8L43.9,243.2z M48.6,236.7
					l4.9-7.8l-8.4,4.1L48.6,236.7z"/>
				<path class="st204" d="M68,260.3l-1.3-1.1l-6.1,7.4l-8.4-7l21.3-25c2.7,1.9,8.1,5.9,10.2,7.7c7.3,6.2,8.6,12.6,3.9,18.1
					c-4.1,4.9-10,4.4-10.1,4.3l-0.8,12.6l-10.6-4.2L68,260.3z M72.4,252.6c3.1,2.7,5.2,3.2,6.6,1.5c1.2-1.4,0.8-2.9-0.8-4.3
					c-0.8-0.7-2.1-1.6-2.1-1.6L72.4,252.6z"/>
				<path class="st204" d="M105.3,270.2l-12.2,20.2l-10.2-5.9l12.9-20l-7.3-4.2l5.5-8.5l23.1,14.1l-5.2,8.5L105.3,270.2z"/>
				<path class="st204" d="M150,296.8C150,296.8,150,296.8,150,296.8c-3.7,9.7-12.2,14.4-21.9,10.8c-10.1-3.8-13-13.7-9.7-22.3
					c3.6-9.6,12.3-13.6,21.8-10C149.8,278.8,153.5,287.4,150,296.8z M139.3,293.1c1.5-4,0.4-7.6-2.4-8.7c-2.9-1.1-6.1,0.6-7.6,4.5
					c-1.2,3.1-1.2,7.5,2.5,8.9C134.8,298.9,137.9,296.7,139.3,293.1z"/>
				<path class="st204" d="M179.4,286l-1.7,9.7l-13-2.8l-1,4.9l10.1,1.8l-2.1,9.3l-9.7-2.1l-1.9,9.6l-10.9-2l6.6-32.7L179.4,286z"/>
				<path class="st204" d="M201.7,311.7l-1.7,0l-0.1,9.6l-10.9-0.2l0.9-32.8c3.3-0.3,10-0.5,12.8-0.4c9.6,0.2,14.5,4.4,14.4,11.7
					c-0.1,6.4-5,9.7-5.1,9.7l7.2,10.4l-10.9,3.4L201.7,311.7z M200.3,303c4.1,0.2,6-0.8,6.1-3c0-1.9-1.2-2.8-3.4-2.8
					c-1,0-2.6,0.1-2.6,0.1L200.3,303z"/>
				<path class="st204" d="M241.9,313.8l-8.5,1.7l-0.8,5.3l-11.6,0.5l6.4-33.6l12.1-2.3l16.3,30.9l-11.4,3.1L241.9,313.8z
					 M239,306.3l-3.9-8.4l-1.2,9.2L239,306.3z M235.1,326c-0.5-2,1-3.8,3-4.1c2.3-0.3,3.8,1.1,4.1,2.7c0.4,1.8-0.7,3.9-2.9,4.1
					C236.9,329.1,235.4,327.8,235.1,326z"/>
				<path class="st204" d="M270.2,303.3l-2.4,0.8l2.7,8.6l-10.6,3.1l-9-31.4c0,0,5.4-2.7,11.5-4.5c7.2-2.1,15.3-1.2,17.8,8
					C282.7,297,276.1,301.5,270.2,303.3z M265.1,295.3l2.3-0.7c2-0.7,2.8-2.1,2.3-4c-0.5-1.8-2.1-2.5-4.1-1.9l-2.3,0.8L265.1,295.3z
					"/>
				<path class="st204" d="M322.5,292.6l-10.8-6.1l-0.1,10.5l-11.3,4.5l1.3-19.4l-16.1-7.8l9.1-7.9l8.8,5.4l0-9.9l11.6-4.1l-1.8,18
					l15.6,6.9L322.5,292.6z"/>
				<path class="st204" d="M324.7,248.8l19,27.3l-9.5,7.3l-19.5-27.1L324.7,248.8z"/>
				<path class="st204" d="M367.4,256.7l-18.5,16l-21.5-25.2l16.8-15.5l6.4,6.7l-9.4,8l2.4,2.7l6.8-6.3l5.7,6.3l-7.1,6.2l2.4,2.7
					l9.8-9L367.4,256.7z M339,231.8l-1,4.1l-4.6,0.4l-0.8,4.4l-4.2,0.5l0.9-6.6l3-2.6L339,231.8z M331.5,222.9l5.4-0.4l-1,7.9
					l-4.3,0.3L331.5,222.9z"/>
				<path class="st204" d="M375.6,232.1c1.3-1.4,2.3-3.2,3.1-5.2l7.9,6.6c-1,2.5-2.5,4.8-4.3,6.8c-6.3,7.2-16.2,10.2-24.6,2.9
					c-8.9-7.8-8.1-17.7-1.2-25.6c1.5-1.7,3.3-3.4,5.4-4.9l7,7.2c-1.6,0.9-2.9,2.1-4,3.3c-2.9,3.3-3.4,7.3,0.3,10.5
					C368.7,236.6,372.8,235.4,375.6,232.1z"/>
			</g>
		</g>
		<g>
			<linearGradient id="SVGID_2_" gradientUnits="userSpaceOnUse" x1="0" y1="164.3923" x2="386.6471" y2="164.3923">
				<stop  offset="0" style="stop-color:#ED1C24"/>
				<stop  offset="1" style="stop-color:#F15A29"/>
			</linearGradient>
			<path style="fill:url(#SVGID_2_);" d="M354.9,112.5c0,95.1-73.3,144.9-145.6,144.9S63.6,207.6,63.6,112.5V87.9h57
				c12.6,0,22.8-10.2,22.8-22.8s-10.2-22.8-22.8-22.8H42.2v130.4H0V0h120.6c35.9,0,65,29.2,65,65s-29.2,65-65,65H107
				c8.1,58.3,56.8,85.1,102.2,85.1c49.8,0,103.4-32.1,103.4-102.7H354.9z"/>
			<linearGradient id="SVGID_4_" gradientUnits="userSpaceOnUse" x1="0" y1="164.3923" x2="386.6471" y2="164.3923">
				<stop  offset="0" style="stop-color:#ED1C24"/>
				<stop  offset="1" style="stop-color:#F15A29"/>
			</linearGradient>
			<polygon style="fill:url(#SVGID_4_);" points="319.8,93.7 333.5,79.2 346.4,93.6 377.8,65.4 362.5,48.4 378.2,31.8 347.5,2.8 
				334.2,16.9 320.9,2.1 289.5,30.3 305.1,47.7 289.1,64.7 			"/>
			<linearGradient id="SVGID_6_" gradientUnits="userSpaceOnUse" x1="0" y1="164.3923" x2="386.6471" y2="164.3923">
				<stop  offset="0" style="stop-color:#ED1C24"/>
				<stop  offset="1" style="stop-color:#F15A29"/>
			</linearGradient>
			<circle style="fill:url(#SVGID_6_);" cx="214" cy="153" r="33.8"/>
			<g>
				<linearGradient id="SVGID_8_" gradientUnits="userSpaceOnUse" x1="0" y1="164.3923" x2="386.6471" y2="164.3923">
					<stop  offset="0" style="stop-color:#ED1C24"/>
					<stop  offset="1" style="stop-color:#F15A29"/>
				</linearGradient>
				<path style="fill:url(#SVGID_8_);" d="M43.9,243.2l-6.1-6.2l-4.9,2.2l-6.8-9.5l31.6-13l8.5,8.8l-16.9,30.6l-8.8-7.8L43.9,243.2z
					 M48.6,236.7l4.9-7.8l-8.4,4.1L48.6,236.7z"/>
				<linearGradient id="SVGID_10_" gradientUnits="userSpaceOnUse" x1="0" y1="164.3923" x2="386.6471" y2="164.3923">
					<stop  offset="0" style="stop-color:#ED1C24"/>
					<stop  offset="1" style="stop-color:#F15A29"/>
				</linearGradient>
				<path style="fill:url(#SVGID_10_);" d="M68,260.3l-1.3-1.1l-6.1,7.4l-8.4-7l21.3-25c2.7,1.9,8.1,5.9,10.2,7.7
					c7.3,6.2,8.6,12.6,3.9,18.1c-4.1,4.9-10,4.4-10.1,4.3l-0.8,12.6l-10.6-4.2L68,260.3z M72.4,252.6c3.1,2.7,5.2,3.2,6.6,1.5
					c1.2-1.4,0.8-2.9-0.8-4.3c-0.8-0.7-2.1-1.6-2.1-1.6L72.4,252.6z"/>
				<linearGradient id="SVGID_12_" gradientUnits="userSpaceOnUse" x1="0" y1="164.3923" x2="386.6471" y2="164.3923">
					<stop  offset="0" style="stop-color:#ED1C24"/>
					<stop  offset="1" style="stop-color:#F15A29"/>
				</linearGradient>
				<path style="fill:url(#SVGID_12_);" d="M105.3,270.2l-12.2,20.2l-10.2-5.9l12.9-20l-7.3-4.2l5.5-8.5l23.1,14.1l-5.2,8.5
					L105.3,270.2z"/>
				<linearGradient id="SVGID_14_" gradientUnits="userSpaceOnUse" x1="0" y1="164.3923" x2="386.6471" y2="164.3923">
					<stop  offset="0" style="stop-color:#ED1C24"/>
					<stop  offset="1" style="stop-color:#F15A29"/>
				</linearGradient>
				<path style="fill:url(#SVGID_14_);" d="M150,296.8C150,296.8,150,296.8,150,296.8c-3.7,9.7-12.2,14.4-21.9,10.8
					c-10.1-3.8-13-13.7-9.7-22.3c3.6-9.6,12.3-13.6,21.8-10C149.8,278.8,153.5,287.4,150,296.8z M139.3,293.1c1.5-4,0.4-7.6-2.4-8.7
					c-2.9-1.1-6.1,0.6-7.6,4.5c-1.2,3.1-1.2,7.5,2.5,8.9C134.8,298.9,137.9,296.7,139.3,293.1z"/>
				<linearGradient id="SVGID_16_" gradientUnits="userSpaceOnUse" x1="0" y1="164.3923" x2="386.6471" y2="164.3923">
					<stop  offset="0" style="stop-color:#ED1C24"/>
					<stop  offset="1" style="stop-color:#F15A29"/>
				</linearGradient>
				<path style="fill:url(#SVGID_16_);" d="M179.4,286l-1.7,9.7l-13-2.8l-1,4.9l10.1,1.8l-2.1,9.3l-9.7-2.1l-1.9,9.6l-10.9-2
					l6.6-32.7L179.4,286z"/>
				<linearGradient id="SVGID_18_" gradientUnits="userSpaceOnUse" x1="0" y1="164.3923" x2="386.6471" y2="164.3923">
					<stop  offset="0" style="stop-color:#ED1C24"/>
					<stop  offset="1" style="stop-color:#F15A29"/>
				</linearGradient>
				<path style="fill:url(#SVGID_18_);" d="M201.7,311.7l-1.7,0l-0.1,9.6l-10.9-0.2l0.9-32.8c3.3-0.3,10-0.5,12.8-0.4
					c9.6,0.2,14.5,4.4,14.4,11.7c-0.1,6.4-5,9.7-5.1,9.7l7.2,10.4l-10.9,3.4L201.7,311.7z M200.3,303c4.1,0.2,6-0.8,6.1-3
					c0-1.9-1.2-2.8-3.4-2.8c-1,0-2.6,0.1-2.6,0.1L200.3,303z"/>
				<linearGradient id="SVGID_20_" gradientUnits="userSpaceOnUse" x1="0" y1="164.3923" x2="386.6471" y2="164.3923">
					<stop  offset="0" style="stop-color:#ED1C24"/>
					<stop  offset="1" style="stop-color:#F15A29"/>
				</linearGradient>
				<path style="fill:url(#SVGID_20_);" d="M241.9,313.8l-8.5,1.7l-0.8,5.3l-11.6,0.5l6.4-33.6l12.1-2.3l16.3,30.9l-11.4,3.1
					L241.9,313.8z M239,306.3l-3.9-8.4l-1.2,9.2L239,306.3z M235.1,326c-0.5-2,1-3.8,3-4.1c2.3-0.3,3.8,1.1,4.1,2.7
					c0.4,1.8-0.7,3.9-2.9,4.1C236.9,329.1,235.4,327.8,235.1,326z"/>
				<linearGradient id="SVGID_22_" gradientUnits="userSpaceOnUse" x1="0" y1="164.3923" x2="386.6471" y2="164.3923">
					<stop  offset="0" style="stop-color:#ED1C24"/>
					<stop  offset="1" style="stop-color:#F15A29"/>
				</linearGradient>
				<path style="fill:url(#SVGID_22_);" d="M270.2,303.3l-2.4,0.8l2.7,8.6l-10.6,3.1l-9-31.4c0,0,5.4-2.7,11.5-4.5
					c7.2-2.1,15.3-1.2,17.8,8C282.7,297,276.1,301.5,270.2,303.3z M265.1,295.3l2.3-0.7c2-0.7,2.8-2.1,2.3-4
					c-0.5-1.8-2.1-2.5-4.1-1.9l-2.3,0.8L265.1,295.3z"/>
				<linearGradient id="SVGID_24_" gradientUnits="userSpaceOnUse" x1="0" y1="164.3923" x2="386.6471" y2="164.3923">
					<stop  offset="0" style="stop-color:#ED1C24"/>
					<stop  offset="1" style="stop-color:#F15A29"/>
				</linearGradient>
				<path style="fill:url(#SVGID_24_);" d="M322.5,292.6l-10.8-6.1l-0.1,10.5l-11.3,4.5l1.3-19.4l-16.1-7.8l9.1-7.9l8.8,5.4l0-9.9
					l11.6-4.1l-1.8,18l15.6,6.9L322.5,292.6z"/>
				<linearGradient id="SVGID_26_" gradientUnits="userSpaceOnUse" x1="0" y1="164.3923" x2="386.6471" y2="164.3923">
					<stop  offset="0" style="stop-color:#ED1C24"/>
					<stop  offset="1" style="stop-color:#F15A29"/>
				</linearGradient>
				<path style="fill:url(#SVGID_26_);" d="M324.7,248.8l19,27.3l-9.5,7.3l-19.5-27.1L324.7,248.8z"/>
				<linearGradient id="SVGID_28_" gradientUnits="userSpaceOnUse" x1="0" y1="164.3923" x2="386.6471" y2="164.3923">
					<stop  offset="0" style="stop-color:#ED1C24"/>
					<stop  offset="1" style="stop-color:#F15A29"/>
				</linearGradient>
				<path style="fill:url(#SVGID_28_);" d="M367.4,256.7l-18.5,16l-21.5-25.2l16.8-15.5l6.4,6.7l-9.4,8l2.4,2.7l6.8-6.3l5.7,6.3
					l-7.1,6.2l2.4,2.7l9.8-9L367.4,256.7z M339,231.8l-1,4.1l-4.6,0.4l-0.8,4.4l-4.2,0.5l0.9-6.6l3-2.6L339,231.8z M331.5,222.9
					l5.4-0.4l-1,7.9l-4.3,0.3L331.5,222.9z"/>
				<linearGradient id="SVGID_30_" gradientUnits="userSpaceOnUse" x1="0" y1="164.3923" x2="386.6471" y2="164.3923">
					<stop  offset="0" style="stop-color:#ED1C24"/>
					<stop  offset="1" style="stop-color:#F15A29"/>
				</linearGradient>
				<path style="fill:url(#SVGID_30_);" d="M375.6,232.1c1.3-1.4,2.3-3.2,3.1-5.2l7.9,6.6c-1,2.5-2.5,4.8-4.3,6.8
					c-6.3,7.2-16.2,10.2-24.6,2.9c-8.9-7.8-8.1-17.7-1.2-25.6c1.5-1.7,3.3-3.4,5.4-4.9l7,7.2c-1.6,0.9-2.9,2.1-4,3.3
					c-2.9,3.3-3.4,7.3,0.3,10.5C368.7,236.6,372.8,235.4,375.6,232.1z"/>
			</g>
		</g>
	</g>
</g>
<g id="Layer_2">
	<g id="Layer_1">
	</g>
</g>
</svg>
